<mxfile host="drawio.corp.amazon.com" modified="2024-09-24T22:10:34.334Z" agent="Mozilla/5.0 (Macintosh; Intel Mac OS X 10.15; rv:130.0) Gecko/20100101 Firefox/130.0" etag="b6mRTPRJZ5zqvTGNLXGC" version="21.7.4" type="device" pages="5">
  <diagram name="Page-1" id="LH-2QtWnMyEiQfE1eo19">
    <mxGraphModel dx="3354" dy="1902" grid="1" gridSize="10" guides="1" tooltips="1" connect="1" arrows="1" fold="1" page="1" pageScale="1" pageWidth="1654" pageHeight="1169" math="0" shadow="0">
      <root>
        <mxCell id="0" />
        <mxCell id="1" parent="0" />
        <mxCell id="suPIvJtQvKfvRBgl1SGr-1" value="AWS Cloud" style="sketch=0;outlineConnect=0;gradientColor=none;html=1;whiteSpace=wrap;fontSize=12;fontStyle=0;shape=mxgraph.aws4.group;grIcon=mxgraph.aws4.group_aws_cloud;strokeColor=#AAB7B8;fillColor=none;verticalAlign=top;align=left;spacingLeft=30;fontColor=#AAB7B8;dashed=0;" parent="1" vertex="1">
          <mxGeometry x="120" y="120" width="810" height="970" as="geometry" />
        </mxCell>
        <mxCell id="suPIvJtQvKfvRBgl1SGr-2" value="Region" style="sketch=0;outlineConnect=0;gradientColor=none;html=1;whiteSpace=wrap;fontSize=12;fontStyle=0;shape=mxgraph.aws4.group;grIcon=mxgraph.aws4.group_region;strokeColor=#879196;fillColor=none;verticalAlign=top;align=left;spacingLeft=30;fontColor=#879196;dashed=1;" parent="1" vertex="1">
          <mxGeometry x="160" y="200" width="750" height="400" as="geometry" />
        </mxCell>
        <mxCell id="suPIvJtQvKfvRBgl1SGr-3" value="Region" style="sketch=0;outlineConnect=0;gradientColor=none;html=1;whiteSpace=wrap;fontSize=12;fontStyle=0;shape=mxgraph.aws4.group;grIcon=mxgraph.aws4.group_region;strokeColor=#879196;fillColor=none;verticalAlign=top;align=left;spacingLeft=30;fontColor=#879196;dashed=1;" parent="1" vertex="1">
          <mxGeometry x="160" y="640" width="750" height="400" as="geometry" />
        </mxCell>
        <mxCell id="suPIvJtQvKfvRBgl1SGr-9" value="VPC" style="sketch=0;outlineConnect=0;gradientColor=none;html=1;whiteSpace=wrap;fontSize=12;fontStyle=0;shape=mxgraph.aws4.group;grIcon=mxgraph.aws4.group_vpc;strokeColor=#879196;fillColor=none;verticalAlign=top;align=left;spacingLeft=30;fontColor=#879196;dashed=0;" parent="1" vertex="1">
          <mxGeometry x="200" y="450" width="130" height="130" as="geometry" />
        </mxCell>
        <mxCell id="suPIvJtQvKfvRBgl1SGr-10" value="" style="sketch=0;outlineConnect=0;gradientColor=none;html=1;whiteSpace=wrap;fontSize=12;fontStyle=0;shape=mxgraph.aws4.group;grIcon=mxgraph.aws4.group_vpc;strokeColor=#879196;fillColor=none;verticalAlign=top;align=left;spacingLeft=30;fontColor=#879196;dashed=0;" parent="1" vertex="1">
          <mxGeometry x="190" y="440" width="130" height="130" as="geometry" />
        </mxCell>
        <mxCell id="suPIvJtQvKfvRBgl1SGr-11" value="" style="sketch=0;outlineConnect=0;gradientColor=none;html=1;whiteSpace=wrap;fontSize=12;fontStyle=0;shape=mxgraph.aws4.group;grIcon=mxgraph.aws4.group_vpc;strokeColor=#879196;fillColor=none;verticalAlign=top;align=left;spacingLeft=30;fontColor=#879196;dashed=0;" parent="1" vertex="1">
          <mxGeometry x="180" y="430" width="130" height="130" as="geometry" />
        </mxCell>
        <mxCell id="suPIvJtQvKfvRBgl1SGr-12" value="VPC" style="sketch=0;outlineConnect=0;gradientColor=none;html=1;whiteSpace=wrap;fontSize=12;fontStyle=0;shape=mxgraph.aws4.group;grIcon=mxgraph.aws4.group_vpc;strokeColor=#879196;fillColor=none;verticalAlign=top;align=left;spacingLeft=30;fontColor=#879196;dashed=0;" parent="1" vertex="1">
          <mxGeometry x="200" y="900" width="130" height="130" as="geometry" />
        </mxCell>
        <mxCell id="suPIvJtQvKfvRBgl1SGr-13" value="" style="sketch=0;outlineConnect=0;gradientColor=none;html=1;whiteSpace=wrap;fontSize=12;fontStyle=0;shape=mxgraph.aws4.group;grIcon=mxgraph.aws4.group_vpc;strokeColor=#879196;fillColor=none;verticalAlign=top;align=left;spacingLeft=30;fontColor=#879196;dashed=0;" parent="1" vertex="1">
          <mxGeometry x="190" y="890" width="130" height="130" as="geometry" />
        </mxCell>
        <mxCell id="suPIvJtQvKfvRBgl1SGr-14" value="" style="sketch=0;outlineConnect=0;gradientColor=none;html=1;whiteSpace=wrap;fontSize=12;fontStyle=0;shape=mxgraph.aws4.group;grIcon=mxgraph.aws4.group_vpc;strokeColor=#879196;fillColor=none;verticalAlign=top;align=left;spacingLeft=30;fontColor=#879196;dashed=0;" parent="1" vertex="1">
          <mxGeometry x="180" y="880" width="130" height="130" as="geometry" />
        </mxCell>
        <mxCell id="suPIvJtQvKfvRBgl1SGr-16" value="VPC" style="sketch=0;outlineConnect=0;gradientColor=none;html=1;whiteSpace=wrap;fontSize=12;fontStyle=0;shape=mxgraph.aws4.group;grIcon=mxgraph.aws4.group_vpc;strokeColor=#879196;fillColor=none;verticalAlign=top;align=left;spacingLeft=30;fontColor=#879196;dashed=0;" parent="1" vertex="1">
          <mxGeometry x="490" y="310" width="130" height="130" as="geometry" />
        </mxCell>
        <mxCell id="suPIvJtQvKfvRBgl1SGr-17" value="VPC" style="sketch=0;outlineConnect=0;gradientColor=none;html=1;whiteSpace=wrap;fontSize=12;fontStyle=0;shape=mxgraph.aws4.group;grIcon=mxgraph.aws4.group_vpc;strokeColor=#879196;fillColor=none;verticalAlign=top;align=left;spacingLeft=30;fontColor=#879196;dashed=0;" parent="1" vertex="1">
          <mxGeometry x="490" y="750" width="130" height="130" as="geometry" />
        </mxCell>
        <mxCell id="suPIvJtQvKfvRBgl1SGr-19" value="NAT" style="sketch=0;outlineConnect=0;fontColor=#232F3E;gradientColor=none;fillColor=#8C4FFF;strokeColor=none;dashed=0;verticalLabelPosition=bottom;verticalAlign=top;align=center;html=1;fontSize=12;fontStyle=0;aspect=fixed;pointerEvents=1;shape=mxgraph.aws4.nat_gateway;" parent="1" vertex="1">
          <mxGeometry x="571" y="750" width="40" height="40" as="geometry" />
        </mxCell>
        <mxCell id="suPIvJtQvKfvRBgl1SGr-20" value="NAT" style="sketch=0;outlineConnect=0;fontColor=#232F3E;gradientColor=none;fillColor=#8C4FFF;strokeColor=none;dashed=0;verticalLabelPosition=bottom;verticalAlign=top;align=center;html=1;fontSize=12;fontStyle=0;aspect=fixed;pointerEvents=1;shape=mxgraph.aws4.nat_gateway;" parent="1" vertex="1">
          <mxGeometry x="572" y="320" width="38" height="38" as="geometry" />
        </mxCell>
        <mxCell id="suPIvJtQvKfvRBgl1SGr-22" style="edgeStyle=orthogonalEdgeStyle;rounded=0;orthogonalLoop=1;jettySize=auto;html=1;" parent="1" source="suPIvJtQvKfvRBgl1SGr-21" target="suPIvJtQvKfvRBgl1SGr-9" edge="1">
          <mxGeometry relative="1" as="geometry">
            <Array as="points">
              <mxPoint x="350" y="439" />
              <mxPoint x="350" y="495" />
            </Array>
          </mxGeometry>
        </mxCell>
        <mxCell id="suPIvJtQvKfvRBgl1SGr-23" style="edgeStyle=orthogonalEdgeStyle;rounded=0;orthogonalLoop=1;jettySize=auto;html=1;" parent="1" source="suPIvJtQvKfvRBgl1SGr-21" target="suPIvJtQvKfvRBgl1SGr-16" edge="1">
          <mxGeometry relative="1" as="geometry" />
        </mxCell>
        <mxCell id="suPIvJtQvKfvRBgl1SGr-21" value="TGW" style="sketch=0;points=[[0,0,0],[0.25,0,0],[0.5,0,0],[0.75,0,0],[1,0,0],[0,1,0],[0.25,1,0],[0.5,1,0],[0.75,1,0],[1,1,0],[0,0.25,0],[0,0.5,0],[0,0.75,0],[1,0.25,0],[1,0.5,0],[1,0.75,0]];outlineConnect=0;fontColor=#232F3E;fillColor=#8C4FFF;strokeColor=#ffffff;dashed=0;verticalLabelPosition=bottom;verticalAlign=top;align=center;html=1;fontSize=12;fontStyle=0;aspect=fixed;shape=mxgraph.aws4.resourceIcon;resIcon=mxgraph.aws4.transit_gateway;" parent="1" vertex="1">
          <mxGeometry x="360" y="400" width="78" height="78" as="geometry" />
        </mxCell>
        <mxCell id="suPIvJtQvKfvRBgl1SGr-25" style="edgeStyle=orthogonalEdgeStyle;rounded=0;orthogonalLoop=1;jettySize=auto;html=1;" parent="1" source="suPIvJtQvKfvRBgl1SGr-24" target="suPIvJtQvKfvRBgl1SGr-12" edge="1">
          <mxGeometry relative="1" as="geometry" />
        </mxCell>
        <mxCell id="suPIvJtQvKfvRBgl1SGr-26" style="edgeStyle=orthogonalEdgeStyle;rounded=0;orthogonalLoop=1;jettySize=auto;html=1;" parent="1" source="suPIvJtQvKfvRBgl1SGr-24" target="suPIvJtQvKfvRBgl1SGr-17" edge="1">
          <mxGeometry relative="1" as="geometry" />
        </mxCell>
        <mxCell id="suPIvJtQvKfvRBgl1SGr-24" value="TGW" style="sketch=0;points=[[0,0,0],[0.25,0,0],[0.5,0,0],[0.75,0,0],[1,0,0],[0,1,0],[0.25,1,0],[0.5,1,0],[0.75,1,0],[1,1,0],[0,0.25,0],[0,0.5,0],[0,0.75,0],[1,0.25,0],[1,0.5,0],[1,0.75,0]];outlineConnect=0;fontColor=#232F3E;fillColor=#8C4FFF;strokeColor=#ffffff;dashed=0;verticalLabelPosition=bottom;verticalAlign=top;align=center;html=1;fontSize=12;fontStyle=0;aspect=fixed;shape=mxgraph.aws4.resourceIcon;resIcon=mxgraph.aws4.transit_gateway;" parent="1" vertex="1">
          <mxGeometry x="370" y="859" width="78" height="78" as="geometry" />
        </mxCell>
        <mxCell id="suPIvJtQvKfvRBgl1SGr-27" value="NLB" style="sketch=0;outlineConnect=0;fontColor=#232F3E;gradientColor=none;fillColor=#8C4FFF;strokeColor=none;dashed=0;verticalLabelPosition=bottom;verticalAlign=top;align=center;html=1;fontSize=12;fontStyle=0;aspect=fixed;pointerEvents=1;shape=mxgraph.aws4.network_load_balancer;" parent="1" vertex="1">
          <mxGeometry x="575" y="824" width="35" height="35" as="geometry" />
        </mxCell>
        <mxCell id="suPIvJtQvKfvRBgl1SGr-28" value="NLB" style="sketch=0;outlineConnect=0;fontColor=#232F3E;gradientColor=none;fillColor=#8C4FFF;strokeColor=none;dashed=0;verticalLabelPosition=bottom;verticalAlign=top;align=center;html=1;fontSize=12;fontStyle=0;aspect=fixed;pointerEvents=1;shape=mxgraph.aws4.network_load_balancer;" parent="1" vertex="1">
          <mxGeometry x="573.5" y="382.5" width="35" height="35" as="geometry" />
        </mxCell>
        <mxCell id="suPIvJtQvKfvRBgl1SGr-29" value="AWS Cloudwan" style="rounded=0;whiteSpace=wrap;html=1;align=left;imageVerticalAlign=middle;verticalAlign=bottom;fillColor=none;strokeColor=#ff0000;" parent="1" vertex="1">
          <mxGeometry x="660" y="210" width="240" height="820" as="geometry" />
        </mxCell>
        <mxCell id="suPIvJtQvKfvRBgl1SGr-58" style="edgeStyle=orthogonalEdgeStyle;rounded=0;orthogonalLoop=1;jettySize=auto;html=1;" parent="1" source="suPIvJtQvKfvRBgl1SGr-39" target="suPIvJtQvKfvRBgl1SGr-16" edge="1">
          <mxGeometry relative="1" as="geometry">
            <Array as="points">
              <mxPoint x="660" y="375" />
              <mxPoint x="660" y="375" />
            </Array>
          </mxGeometry>
        </mxCell>
        <mxCell id="suPIvJtQvKfvRBgl1SGr-39" value="SegA" style="rounded=0;whiteSpace=wrap;html=1;fillColor=#fff2cc;strokeColor=#d6b656;" parent="1" vertex="1">
          <mxGeometry x="670" y="250" width="80" height="340" as="geometry" />
        </mxCell>
        <mxCell id="suPIvJtQvKfvRBgl1SGr-57" style="edgeStyle=orthogonalEdgeStyle;rounded=0;orthogonalLoop=1;jettySize=auto;html=1;" parent="1" source="suPIvJtQvKfvRBgl1SGr-40" target="suPIvJtQvKfvRBgl1SGr-17" edge="1">
          <mxGeometry relative="1" as="geometry">
            <Array as="points">
              <mxPoint x="660" y="815" />
              <mxPoint x="660" y="815" />
            </Array>
          </mxGeometry>
        </mxCell>
        <mxCell id="suPIvJtQvKfvRBgl1SGr-40" value="SegB" style="rounded=0;whiteSpace=wrap;html=1;fillColor=#ffe6cc;strokeColor=#d79b00;" parent="1" vertex="1">
          <mxGeometry x="670" y="660" width="80" height="340" as="geometry" />
        </mxCell>
        <mxCell id="suPIvJtQvKfvRBgl1SGr-41" value="SegBVPN" style="rounded=0;whiteSpace=wrap;html=1;fillColor=#d5e8d4;strokeColor=#82b366;" parent="1" vertex="1">
          <mxGeometry x="810" y="660" width="80" height="340" as="geometry" />
        </mxCell>
        <mxCell id="suPIvJtQvKfvRBgl1SGr-42" value="SegAVPN" style="rounded=0;whiteSpace=wrap;html=1;fillColor=#dae8fc;strokeColor=#6c8ebf;" parent="1" vertex="1">
          <mxGeometry x="810" y="250" width="80" height="340" as="geometry" />
        </mxCell>
        <mxCell id="suPIvJtQvKfvRBgl1SGr-43" value="" style="shape=flexArrow;endArrow=classic;html=1;rounded=0;" parent="1" edge="1">
          <mxGeometry width="50" height="50" relative="1" as="geometry">
            <mxPoint x="750" y="350" as="sourcePoint" />
            <mxPoint x="810" y="350" as="targetPoint" />
          </mxGeometry>
        </mxCell>
        <mxCell id="suPIvJtQvKfvRBgl1SGr-44" value="Share" style="edgeLabel;html=1;align=center;verticalAlign=middle;resizable=0;points=[];" parent="suPIvJtQvKfvRBgl1SGr-43" vertex="1" connectable="0">
          <mxGeometry x="-0.3719" y="1" relative="1" as="geometry">
            <mxPoint as="offset" />
          </mxGeometry>
        </mxCell>
        <mxCell id="suPIvJtQvKfvRBgl1SGr-47" value="" style="shape=flexArrow;endArrow=classic;html=1;rounded=0;" parent="1" edge="1">
          <mxGeometry width="50" height="50" relative="1" as="geometry">
            <mxPoint x="750" y="730" as="sourcePoint" />
            <mxPoint x="810" y="730" as="targetPoint" />
          </mxGeometry>
        </mxCell>
        <mxCell id="suPIvJtQvKfvRBgl1SGr-48" value="Share" style="edgeLabel;html=1;align=center;verticalAlign=middle;resizable=0;points=[];" parent="suPIvJtQvKfvRBgl1SGr-47" vertex="1" connectable="0">
          <mxGeometry x="-0.3719" y="1" relative="1" as="geometry">
            <mxPoint as="offset" />
          </mxGeometry>
        </mxCell>
        <mxCell id="suPIvJtQvKfvRBgl1SGr-49" value="" style="shape=flexArrow;endArrow=classic;html=1;rounded=0;entryX=0.25;entryY=1;entryDx=0;entryDy=0;" parent="1" target="suPIvJtQvKfvRBgl1SGr-39" edge="1">
          <mxGeometry width="50" height="50" relative="1" as="geometry">
            <mxPoint x="690" y="660" as="sourcePoint" />
            <mxPoint x="690" y="610" as="targetPoint" />
          </mxGeometry>
        </mxCell>
        <mxCell id="suPIvJtQvKfvRBgl1SGr-50" value="Share" style="edgeLabel;html=1;align=center;verticalAlign=middle;resizable=0;points=[];" parent="suPIvJtQvKfvRBgl1SGr-49" vertex="1" connectable="0">
          <mxGeometry x="-0.3719" y="1" relative="1" as="geometry">
            <mxPoint as="offset" />
          </mxGeometry>
        </mxCell>
        <mxCell id="suPIvJtQvKfvRBgl1SGr-51" value="" style="shape=flexArrow;endArrow=classic;html=1;rounded=0;exitX=0.75;exitY=1;exitDx=0;exitDy=0;entryX=0.75;entryY=0;entryDx=0;entryDy=0;" parent="1" source="suPIvJtQvKfvRBgl1SGr-39" target="suPIvJtQvKfvRBgl1SGr-40" edge="1">
          <mxGeometry width="50" height="50" relative="1" as="geometry">
            <mxPoint x="730" y="600" as="sourcePoint" />
            <mxPoint x="730" y="640" as="targetPoint" />
          </mxGeometry>
        </mxCell>
        <mxCell id="suPIvJtQvKfvRBgl1SGr-52" value="Share" style="edgeLabel;html=1;align=center;verticalAlign=middle;resizable=0;points=[];" parent="suPIvJtQvKfvRBgl1SGr-51" vertex="1" connectable="0">
          <mxGeometry x="-0.3719" y="1" relative="1" as="geometry">
            <mxPoint as="offset" />
          </mxGeometry>
        </mxCell>
        <mxCell id="suPIvJtQvKfvRBgl1SGr-53" value="" style="shape=flexArrow;endArrow=classic;html=1;rounded=0;entryX=1;entryY=0.75;entryDx=0;entryDy=0;exitX=0;exitY=0.75;exitDx=0;exitDy=0;" parent="1" source="suPIvJtQvKfvRBgl1SGr-41" target="suPIvJtQvKfvRBgl1SGr-40" edge="1">
          <mxGeometry width="50" height="50" relative="1" as="geometry">
            <mxPoint x="760" y="740" as="sourcePoint" />
            <mxPoint x="820" y="740" as="targetPoint" />
          </mxGeometry>
        </mxCell>
        <mxCell id="suPIvJtQvKfvRBgl1SGr-54" value="Share" style="edgeLabel;html=1;align=center;verticalAlign=middle;resizable=0;points=[];" parent="suPIvJtQvKfvRBgl1SGr-53" vertex="1" connectable="0">
          <mxGeometry x="-0.3719" y="1" relative="1" as="geometry">
            <mxPoint as="offset" />
          </mxGeometry>
        </mxCell>
        <mxCell id="suPIvJtQvKfvRBgl1SGr-55" value="" style="shape=flexArrow;endArrow=classic;html=1;rounded=0;entryX=1;entryY=0.75;entryDx=0;entryDy=0;exitX=0;exitY=0.75;exitDx=0;exitDy=0;" parent="1" edge="1">
          <mxGeometry width="50" height="50" relative="1" as="geometry">
            <mxPoint x="810" y="494.5" as="sourcePoint" />
            <mxPoint x="750" y="494.5" as="targetPoint" />
          </mxGeometry>
        </mxCell>
        <mxCell id="suPIvJtQvKfvRBgl1SGr-56" value="Share" style="edgeLabel;html=1;align=center;verticalAlign=middle;resizable=0;points=[];" parent="suPIvJtQvKfvRBgl1SGr-55" vertex="1" connectable="0">
          <mxGeometry x="-0.3719" y="1" relative="1" as="geometry">
            <mxPoint as="offset" />
          </mxGeometry>
        </mxCell>
        <mxCell id="suPIvJtQvKfvRBgl1SGr-59" value="Customer Gateway A" style="sketch=0;outlineConnect=0;fontColor=#232F3E;gradientColor=none;fillColor=#8C4FFF;strokeColor=none;dashed=0;verticalLabelPosition=bottom;verticalAlign=top;align=center;html=1;fontSize=12;fontStyle=0;aspect=fixed;pointerEvents=1;shape=mxgraph.aws4.customer_gateway;" parent="1" vertex="1">
          <mxGeometry x="1070" y="381" width="78" height="78" as="geometry" />
        </mxCell>
        <mxCell id="suPIvJtQvKfvRBgl1SGr-62" style="edgeStyle=orthogonalEdgeStyle;rounded=0;orthogonalLoop=1;jettySize=auto;html=1;entryX=1;entryY=0.5;entryDx=0;entryDy=0;startArrow=classic;startFill=1;endArrow=none;endFill=0;" parent="1" source="suPIvJtQvKfvRBgl1SGr-60" target="suPIvJtQvKfvRBgl1SGr-41" edge="1">
          <mxGeometry relative="1" as="geometry" />
        </mxCell>
        <mxCell id="suPIvJtQvKfvRBgl1SGr-60" value="Customer Gateway B" style="sketch=0;outlineConnect=0;fontColor=#232F3E;gradientColor=none;fillColor=#8C4FFF;strokeColor=none;dashed=0;verticalLabelPosition=bottom;verticalAlign=top;align=center;html=1;fontSize=12;fontStyle=0;aspect=fixed;pointerEvents=1;shape=mxgraph.aws4.customer_gateway;" parent="1" vertex="1">
          <mxGeometry x="1070" y="791" width="78" height="78" as="geometry" />
        </mxCell>
        <mxCell id="suPIvJtQvKfvRBgl1SGr-64" style="edgeStyle=orthogonalEdgeStyle;rounded=0;orthogonalLoop=1;jettySize=auto;html=1;dashed=1;" parent="1" source="suPIvJtQvKfvRBgl1SGr-63" target="suPIvJtQvKfvRBgl1SGr-16" edge="1">
          <mxGeometry relative="1" as="geometry" />
        </mxCell>
        <mxCell id="suPIvJtQvKfvRBgl1SGr-65" style="edgeStyle=orthogonalEdgeStyle;rounded=0;orthogonalLoop=1;jettySize=auto;html=1;dashed=1;" parent="1" source="suPIvJtQvKfvRBgl1SGr-63" target="suPIvJtQvKfvRBgl1SGr-17" edge="1">
          <mxGeometry relative="1" as="geometry" />
        </mxCell>
        <mxCell id="suPIvJtQvKfvRBgl1SGr-63" value="VPC IMAP" style="sketch=0;points=[[0,0,0],[0.25,0,0],[0.5,0,0],[0.75,0,0],[1,0,0],[0,1,0],[0.25,1,0],[0.5,1,0],[0.75,1,0],[1,1,0],[0,0.25,0],[0,0.5,0],[0,0.75,0],[1,0.25,0],[1,0.5,0],[1,0.75,0]];outlineConnect=0;fontColor=#232F3E;fillColor=#8C4FFF;strokeColor=#ffffff;dashed=0;verticalLabelPosition=bottom;verticalAlign=top;align=center;html=1;fontSize=12;fontStyle=0;aspect=fixed;shape=mxgraph.aws4.resourceIcon;resIcon=mxgraph.aws4.vpc;" parent="1" vertex="1">
          <mxGeometry x="536" y="600.5" width="39" height="39" as="geometry" />
        </mxCell>
        <mxCell id="suPIvJtQvKfvRBgl1SGr-70" value="" style="edgeStyle=orthogonalEdgeStyle;rounded=0;orthogonalLoop=1;jettySize=auto;html=1;endArrow=none;endFill=0;startArrow=classic;startFill=1;" parent="1" source="suPIvJtQvKfvRBgl1SGr-59" target="suPIvJtQvKfvRBgl1SGr-66" edge="1">
          <mxGeometry relative="1" as="geometry">
            <mxPoint x="1070" y="420" as="sourcePoint" />
            <mxPoint x="890" y="420" as="targetPoint" />
          </mxGeometry>
        </mxCell>
        <mxCell id="suPIvJtQvKfvRBgl1SGr-66" value="VPN" style="sketch=0;points=[[0,0,0],[0.25,0,0],[0.5,0,0],[0.75,0,0],[1,0,0],[0,1,0],[0.25,1,0],[0.5,1,0],[0.75,1,0],[1,1,0],[0,0.25,0],[0,0.5,0],[0,0.75,0],[1,0.25,0],[1,0.5,0],[1,0.75,0]];outlineConnect=0;fontColor=#232F3E;fillColor=#8C4FFF;strokeColor=#ffffff;dashed=0;verticalLabelPosition=bottom;verticalAlign=top;align=center;html=1;fontSize=12;fontStyle=0;aspect=fixed;shape=mxgraph.aws4.resourceIcon;resIcon=mxgraph.aws4.site_to_site_vpn;" parent="1" vertex="1">
          <mxGeometry x="890" y="391.25" width="57.5" height="57.5" as="geometry" />
        </mxCell>
        <mxCell id="suPIvJtQvKfvRBgl1SGr-71" value="VPN" style="sketch=0;points=[[0,0,0],[0.25,0,0],[0.5,0,0],[0.75,0,0],[1,0,0],[0,1,0],[0.25,1,0],[0.5,1,0],[0.75,1,0],[1,1,0],[0,0.25,0],[0,0.5,0],[0,0.75,0],[1,0.25,0],[1,0.5,0],[1,0.75,0]];outlineConnect=0;fontColor=#232F3E;fillColor=#8C4FFF;strokeColor=#ffffff;dashed=0;verticalLabelPosition=bottom;verticalAlign=top;align=center;html=1;fontSize=12;fontStyle=0;aspect=fixed;shape=mxgraph.aws4.resourceIcon;resIcon=mxgraph.aws4.site_to_site_vpn;" parent="1" vertex="1">
          <mxGeometry x="890" y="801.25" width="57.5" height="57.5" as="geometry" />
        </mxCell>
      </root>
    </mxGraphModel>
  </diagram>
  <diagram id="tnUpp_ComcGu2L_6FnrM" name="Page-2">
    <mxGraphModel dx="2484" dy="1409" grid="1" gridSize="10" guides="1" tooltips="1" connect="1" arrows="1" fold="1" page="1" pageScale="1" pageWidth="1654" pageHeight="1169" math="0" shadow="0">
      <root>
        <mxCell id="0" />
        <mxCell id="1" parent="0" />
        <mxCell id="022i_NWAXlzWO3NnTauV-1" value="AWS" style="whiteSpace=wrap;html=1;aspect=fixed;align=left;verticalAlign=top;spacingLeft=4;" vertex="1" parent="1">
          <mxGeometry x="320" y="200" width="480" height="480" as="geometry" />
        </mxCell>
        <mxCell id="022i_NWAXlzWO3NnTauV-13" value="CLOUWAN" style="rounded=1;whiteSpace=wrap;html=1;verticalAlign=top;" vertex="1" parent="1">
          <mxGeometry x="520" y="210" width="260" height="460" as="geometry" />
        </mxCell>
        <mxCell id="022i_NWAXlzWO3NnTauV-14" style="edgeStyle=orthogonalEdgeStyle;rounded=0;orthogonalLoop=1;jettySize=auto;html=1;startArrow=classic;startFill=1;" edge="1" parent="1" source="022i_NWAXlzWO3NnTauV-2" target="022i_NWAXlzWO3NnTauV-5">
          <mxGeometry relative="1" as="geometry" />
        </mxCell>
        <mxCell id="022i_NWAXlzWO3NnTauV-2" value="VPC" style="rounded=0;whiteSpace=wrap;html=1;fillColor=#dae8fc;strokeColor=#6c8ebf;" vertex="1" parent="1">
          <mxGeometry x="360" y="250" width="120" height="60" as="geometry" />
        </mxCell>
        <mxCell id="022i_NWAXlzWO3NnTauV-15" style="edgeStyle=orthogonalEdgeStyle;rounded=0;orthogonalLoop=1;jettySize=auto;html=1;startArrow=classic;startFill=1;" edge="1" parent="1" source="022i_NWAXlzWO3NnTauV-3" target="022i_NWAXlzWO3NnTauV-6">
          <mxGeometry relative="1" as="geometry" />
        </mxCell>
        <mxCell id="022i_NWAXlzWO3NnTauV-3" value="VPC" style="rounded=0;whiteSpace=wrap;html=1;fillColor=#f8cecc;strokeColor=#b85450;" vertex="1" parent="1">
          <mxGeometry x="360" y="410" width="120" height="60" as="geometry" />
        </mxCell>
        <mxCell id="022i_NWAXlzWO3NnTauV-16" style="edgeStyle=orthogonalEdgeStyle;rounded=0;orthogonalLoop=1;jettySize=auto;html=1;startArrow=classic;startFill=1;" edge="1" parent="1" source="022i_NWAXlzWO3NnTauV-4" target="022i_NWAXlzWO3NnTauV-7">
          <mxGeometry relative="1" as="geometry" />
        </mxCell>
        <mxCell id="022i_NWAXlzWO3NnTauV-4" value="VPC" style="rounded=0;whiteSpace=wrap;html=1;fillColor=#d5e8d4;strokeColor=#82b366;" vertex="1" parent="1">
          <mxGeometry x="360" y="580" width="120" height="60" as="geometry" />
        </mxCell>
        <mxCell id="022i_NWAXlzWO3NnTauV-17" style="edgeStyle=orthogonalEdgeStyle;rounded=0;orthogonalLoop=1;jettySize=auto;html=1;entryX=0.5;entryY=0;entryDx=0;entryDy=0;startArrow=classic;startFill=1;strokeColor=#ff0000;" edge="1" parent="1" source="022i_NWAXlzWO3NnTauV-5" target="022i_NWAXlzWO3NnTauV-6">
          <mxGeometry relative="1" as="geometry" />
        </mxCell>
        <mxCell id="0qmGjs2bfvgadz4yQ3lC-1" value="Share " style="edgeLabel;html=1;align=center;verticalAlign=middle;resizable=0;points=[];" vertex="1" connectable="0" parent="022i_NWAXlzWO3NnTauV-17">
          <mxGeometry x="0.1435" y="4" relative="1" as="geometry">
            <mxPoint as="offset" />
          </mxGeometry>
        </mxCell>
        <mxCell id="022i_NWAXlzWO3NnTauV-5" value="SegA" style="rounded=0;whiteSpace=wrap;html=1;fillColor=#dae8fc;strokeColor=#6c8ebf;opacity=50;" vertex="1" parent="1">
          <mxGeometry x="540" y="250" width="100" height="60" as="geometry" />
        </mxCell>
        <mxCell id="022i_NWAXlzWO3NnTauV-6" value="SegB" style="rounded=0;whiteSpace=wrap;html=1;fillColor=#f8cecc;strokeColor=#b85450;opacity=50;" vertex="1" parent="1">
          <mxGeometry x="540" y="410" width="100" height="60" as="geometry" />
        </mxCell>
        <mxCell id="022i_NWAXlzWO3NnTauV-7" value="SegC" style="rounded=0;whiteSpace=wrap;html=1;fillColor=#d5e8d4;strokeColor=#82b366;opacity=50;" vertex="1" parent="1">
          <mxGeometry x="540" y="580" width="100" height="60" as="geometry" />
        </mxCell>
        <mxCell id="022i_NWAXlzWO3NnTauV-9" value="SegAVPN" style="rounded=0;whiteSpace=wrap;html=1;opacity=50;fillColor=#dae8fc;strokeColor=#6c8ebf;" vertex="1" parent="1">
          <mxGeometry x="670" y="250" width="100" height="60" as="geometry" />
        </mxCell>
        <mxCell id="022i_NWAXlzWO3NnTauV-10" value="SegBVPN" style="rounded=0;whiteSpace=wrap;html=1;fillColor=#f8cecc;strokeColor=#b85450;opacity=50;" vertex="1" parent="1">
          <mxGeometry x="670" y="410" width="100" height="60" as="geometry" />
        </mxCell>
        <mxCell id="022i_NWAXlzWO3NnTauV-11" value="SegCVPN" style="rounded=0;whiteSpace=wrap;html=1;fillColor=#d5e8d4;strokeColor=#82b366;opacity=50;" vertex="1" parent="1">
          <mxGeometry x="670" y="580" width="100" height="60" as="geometry" />
        </mxCell>
        <mxCell id="022i_NWAXlzWO3NnTauV-18" style="edgeStyle=orthogonalEdgeStyle;rounded=0;orthogonalLoop=1;jettySize=auto;html=1;entryX=0.5;entryY=0;entryDx=0;entryDy=0;startArrow=classic;startFill=1;strokeColor=#ff0000;" edge="1" parent="1" target="022i_NWAXlzWO3NnTauV-7">
          <mxGeometry relative="1" as="geometry">
            <mxPoint x="589.5" y="470" as="sourcePoint" />
            <mxPoint x="589.5" y="570" as="targetPoint" />
          </mxGeometry>
        </mxCell>
        <mxCell id="0qmGjs2bfvgadz4yQ3lC-2" value="Share" style="edgeLabel;html=1;align=center;verticalAlign=middle;resizable=0;points=[];" vertex="1" connectable="0" parent="022i_NWAXlzWO3NnTauV-18">
          <mxGeometry x="-0.1082" y="5" relative="1" as="geometry">
            <mxPoint as="offset" />
          </mxGeometry>
        </mxCell>
        <mxCell id="022i_NWAXlzWO3NnTauV-19" style="edgeStyle=orthogonalEdgeStyle;rounded=0;orthogonalLoop=1;jettySize=auto;html=1;startArrow=classic;startFill=1;strokeColor=#ff0000;" edge="1" parent="1" target="022i_NWAXlzWO3NnTauV-9">
          <mxGeometry relative="1" as="geometry">
            <mxPoint x="639" y="280" as="sourcePoint" />
            <mxPoint x="639" y="380" as="targetPoint" />
          </mxGeometry>
        </mxCell>
        <mxCell id="022i_NWAXlzWO3NnTauV-20" style="edgeStyle=orthogonalEdgeStyle;rounded=0;orthogonalLoop=1;jettySize=auto;html=1;startArrow=classic;startFill=1;strokeColor=#ff0000;" edge="1" parent="1">
          <mxGeometry relative="1" as="geometry">
            <mxPoint x="640" y="439.86" as="sourcePoint" />
            <mxPoint x="671" y="439.86" as="targetPoint" />
          </mxGeometry>
        </mxCell>
        <mxCell id="022i_NWAXlzWO3NnTauV-22" style="edgeStyle=orthogonalEdgeStyle;rounded=0;orthogonalLoop=1;jettySize=auto;html=1;startArrow=classic;startFill=1;strokeColor=#ff0000;" edge="1" parent="1">
          <mxGeometry relative="1" as="geometry">
            <mxPoint x="640" y="609.86" as="sourcePoint" />
            <mxPoint x="671" y="609.86" as="targetPoint" />
          </mxGeometry>
        </mxCell>
        <mxCell id="022i_NWAXlzWO3NnTauV-24" value="OnPREM" style="rounded=0;whiteSpace=wrap;html=1;verticalAlign=top;align=left;" vertex="1" parent="1">
          <mxGeometry x="880" y="200" width="120" height="480" as="geometry" />
        </mxCell>
        <mxCell id="022i_NWAXlzWO3NnTauV-25" value="" style="shape=flexArrow;endArrow=classic;startArrow=classic;html=1;rounded=0;entryX=0.002;entryY=0.166;entryDx=0;entryDy=0;entryPerimeter=0;" edge="1" parent="1" target="022i_NWAXlzWO3NnTauV-24">
          <mxGeometry width="100" height="100" relative="1" as="geometry">
            <mxPoint x="770" y="280" as="sourcePoint" />
            <mxPoint x="870" y="180" as="targetPoint" />
          </mxGeometry>
        </mxCell>
        <mxCell id="022i_NWAXlzWO3NnTauV-27" value="VPN" style="edgeLabel;html=1;align=center;verticalAlign=middle;resizable=0;points=[];" vertex="1" connectable="0" parent="022i_NWAXlzWO3NnTauV-25">
          <mxGeometry x="-0.0353" y="5" relative="1" as="geometry">
            <mxPoint as="offset" />
          </mxGeometry>
        </mxCell>
        <mxCell id="022i_NWAXlzWO3NnTauV-28" value="" style="shape=flexArrow;endArrow=classic;startArrow=classic;html=1;rounded=0;entryX=0.002;entryY=0.166;entryDx=0;entryDy=0;entryPerimeter=0;" edge="1" parent="1">
          <mxGeometry width="100" height="100" relative="1" as="geometry">
            <mxPoint x="770" y="439.63" as="sourcePoint" />
            <mxPoint x="880" y="439.63" as="targetPoint" />
          </mxGeometry>
        </mxCell>
        <mxCell id="022i_NWAXlzWO3NnTauV-29" value="VPN" style="edgeLabel;html=1;align=center;verticalAlign=middle;resizable=0;points=[];" vertex="1" connectable="0" parent="022i_NWAXlzWO3NnTauV-28">
          <mxGeometry x="-0.0353" y="5" relative="1" as="geometry">
            <mxPoint as="offset" />
          </mxGeometry>
        </mxCell>
        <mxCell id="022i_NWAXlzWO3NnTauV-30" value="" style="shape=flexArrow;endArrow=classic;startArrow=classic;html=1;rounded=0;entryX=0.002;entryY=0.166;entryDx=0;entryDy=0;entryPerimeter=0;" edge="1" parent="1">
          <mxGeometry width="100" height="100" relative="1" as="geometry">
            <mxPoint x="770" y="609.63" as="sourcePoint" />
            <mxPoint x="880" y="609.63" as="targetPoint" />
          </mxGeometry>
        </mxCell>
        <mxCell id="022i_NWAXlzWO3NnTauV-31" value="VPN" style="edgeLabel;html=1;align=center;verticalAlign=middle;resizable=0;points=[];" vertex="1" connectable="0" parent="022i_NWAXlzWO3NnTauV-30">
          <mxGeometry x="-0.0353" y="5" relative="1" as="geometry">
            <mxPoint as="offset" />
          </mxGeometry>
        </mxCell>
      </root>
    </mxGraphModel>
  </diagram>
  <diagram id="sKVZP5dr6XOM8Hn-tMJg" name="Page-3">
    <mxGraphModel dx="2096" dy="1189" grid="1" gridSize="10" guides="1" tooltips="1" connect="1" arrows="1" fold="1" page="1" pageScale="1" pageWidth="1654" pageHeight="1169" math="0" shadow="0">
      <root>
        <mxCell id="0" />
        <mxCell id="1" parent="0" />
        <mxCell id="ELkXR98ZMJbfR8ZKuONg-1" value="AWS" style="whiteSpace=wrap;html=1;aspect=fixed;align=left;verticalAlign=top;spacingLeft=4;" vertex="1" parent="1">
          <mxGeometry x="320" y="200" width="480" height="480" as="geometry" />
        </mxCell>
        <mxCell id="ELkXR98ZMJbfR8ZKuONg-2" value="CLOUWAN" style="rounded=1;whiteSpace=wrap;html=1;verticalAlign=top;" vertex="1" parent="1">
          <mxGeometry x="520" y="210" width="260" height="460" as="geometry" />
        </mxCell>
        <mxCell id="ELkXR98ZMJbfR8ZKuONg-4" value="Affiliate A" style="rounded=0;whiteSpace=wrap;html=1;fillColor=#dae8fc;strokeColor=#6c8ebf;" vertex="1" parent="1">
          <mxGeometry x="360" y="250" width="120" height="60" as="geometry" />
        </mxCell>
        <mxCell id="ELkXR98ZMJbfR8ZKuONg-6" value="Affiliate A" style="rounded=0;whiteSpace=wrap;html=1;fillColor=#f8cecc;strokeColor=#b85450;" vertex="1" parent="1">
          <mxGeometry x="360" y="410" width="120" height="60" as="geometry" />
        </mxCell>
        <mxCell id="ELkXR98ZMJbfR8ZKuONg-8" value="Affiliate A" style="rounded=0;whiteSpace=wrap;html=1;fillColor=#d5e8d4;strokeColor=#82b366;" vertex="1" parent="1">
          <mxGeometry x="360" y="580" width="120" height="60" as="geometry" />
        </mxCell>
        <mxCell id="ELkXR98ZMJbfR8ZKuONg-22" value="OnPREM" style="rounded=0;whiteSpace=wrap;html=1;verticalAlign=top;align=left;" vertex="1" parent="1">
          <mxGeometry x="880" y="200" width="120" height="480" as="geometry" />
        </mxCell>
        <mxCell id="ELkXR98ZMJbfR8ZKuONg-23" value="" style="shape=flexArrow;endArrow=classic;startArrow=classic;html=1;rounded=0;entryX=0.002;entryY=0.166;entryDx=0;entryDy=0;entryPerimeter=0;fillColor=#dae8fc;strokeColor=#6c8ebf;" edge="1" parent="1" target="ELkXR98ZMJbfR8ZKuONg-22">
          <mxGeometry width="100" height="100" relative="1" as="geometry">
            <mxPoint x="770" y="280" as="sourcePoint" />
            <mxPoint x="870" y="180" as="targetPoint" />
          </mxGeometry>
        </mxCell>
        <mxCell id="ELkXR98ZMJbfR8ZKuONg-24" value="VPN" style="edgeLabel;html=1;align=center;verticalAlign=middle;resizable=0;points=[];" vertex="1" connectable="0" parent="ELkXR98ZMJbfR8ZKuONg-23">
          <mxGeometry x="-0.0353" y="5" relative="1" as="geometry">
            <mxPoint as="offset" />
          </mxGeometry>
        </mxCell>
        <mxCell id="ELkXR98ZMJbfR8ZKuONg-25" value="" style="shape=flexArrow;endArrow=classic;startArrow=classic;html=1;rounded=0;entryX=0.002;entryY=0.166;entryDx=0;entryDy=0;entryPerimeter=0;fillColor=#f8cecc;strokeColor=#b85450;" edge="1" parent="1">
          <mxGeometry width="100" height="100" relative="1" as="geometry">
            <mxPoint x="770" y="425" as="sourcePoint" />
            <mxPoint x="880" y="425" as="targetPoint" />
          </mxGeometry>
        </mxCell>
        <mxCell id="ELkXR98ZMJbfR8ZKuONg-26" value="VPN" style="edgeLabel;html=1;align=center;verticalAlign=middle;resizable=0;points=[];" vertex="1" connectable="0" parent="ELkXR98ZMJbfR8ZKuONg-25">
          <mxGeometry x="-0.0353" y="5" relative="1" as="geometry">
            <mxPoint as="offset" />
          </mxGeometry>
        </mxCell>
        <mxCell id="ELkXR98ZMJbfR8ZKuONg-27" value="" style="shape=flexArrow;endArrow=classic;startArrow=classic;html=1;rounded=0;entryX=0.002;entryY=0.166;entryDx=0;entryDy=0;entryPerimeter=0;fillColor=#d5e8d4;strokeColor=#82b366;" edge="1" parent="1">
          <mxGeometry width="100" height="100" relative="1" as="geometry">
            <mxPoint x="770" y="609.63" as="sourcePoint" />
            <mxPoint x="880" y="609.63" as="targetPoint" />
          </mxGeometry>
        </mxCell>
        <mxCell id="ELkXR98ZMJbfR8ZKuONg-28" value="VPN" style="edgeLabel;html=1;align=center;verticalAlign=middle;resizable=0;points=[];" vertex="1" connectable="0" parent="ELkXR98ZMJbfR8ZKuONg-27">
          <mxGeometry x="-0.0353" y="5" relative="1" as="geometry">
            <mxPoint as="offset" />
          </mxGeometry>
        </mxCell>
        <mxCell id="ELkXR98ZMJbfR8ZKuONg-29" value="" style="shape=flexArrow;endArrow=classic;startArrow=classic;html=1;rounded=0;fontColor=#00ff00;labelBackgroundColor=#00ff00;strokeColor=#000000;fillColor=#00ff00;entryX=0.007;entryY=0.186;entryDx=0;entryDy=0;entryPerimeter=0;exitX=0.992;exitY=0.662;exitDx=0;exitDy=0;exitPerimeter=0;" edge="1" parent="1">
          <mxGeometry width="100" height="100" relative="1" as="geometry">
            <mxPoint x="478.2" y="260.44000000000005" as="sourcePoint" />
            <mxPoint x="880.0000000000001" y="260" as="targetPoint" />
          </mxGeometry>
        </mxCell>
        <mxCell id="ELkXR98ZMJbfR8ZKuONg-30" value="" style="shape=flexArrow;endArrow=classic;startArrow=classic;html=1;rounded=0;fontColor=#00ff00;labelBackgroundColor=#00ff00;strokeColor=default;fillColor=#00ff00;entryX=0.007;entryY=0.186;entryDx=0;entryDy=0;entryPerimeter=0;exitX=0.992;exitY=0.662;exitDx=0;exitDy=0;exitPerimeter=0;" edge="1" parent="1">
          <mxGeometry width="100" height="100" relative="1" as="geometry">
            <mxPoint x="477" y="444" as="sourcePoint" />
            <mxPoint x="879" y="443" as="targetPoint" />
          </mxGeometry>
        </mxCell>
        <mxCell id="ELkXR98ZMJbfR8ZKuONg-31" value="" style="shape=flexArrow;endArrow=classic;startArrow=classic;html=1;rounded=0;fontColor=#00ff00;labelBackgroundColor=#00ff00;strokeColor=default;fillColor=#00ff00;entryX=0.007;entryY=0.186;entryDx=0;entryDy=0;entryPerimeter=0;exitX=0.992;exitY=0.662;exitDx=0;exitDy=0;exitPerimeter=0;" edge="1" parent="1">
          <mxGeometry width="100" height="100" relative="1" as="geometry">
            <mxPoint x="481" y="617" as="sourcePoint" />
            <mxPoint x="883" y="616" as="targetPoint" />
          </mxGeometry>
        </mxCell>
        <mxCell id="ELkXR98ZMJbfR8ZKuONg-32" value="" style="shape=flexArrow;endArrow=classic;startArrow=classic;html=1;rounded=0;fontColor=#00ff00;labelBackgroundColor=#00ff00;strokeColor=#000000;fillColor=#00ff00;entryX=1;entryY=0.5;entryDx=0;entryDy=0;" edge="1" parent="1" source="ELkXR98ZMJbfR8ZKuONg-6" target="ELkXR98ZMJbfR8ZKuONg-4">
          <mxGeometry width="100" height="100" relative="1" as="geometry">
            <mxPoint x="497" y="464" as="sourcePoint" />
            <mxPoint x="899" y="463" as="targetPoint" />
            <Array as="points">
              <mxPoint x="580" y="360" />
            </Array>
          </mxGeometry>
        </mxCell>
        <mxCell id="ELkXR98ZMJbfR8ZKuONg-33" value="" style="shape=flexArrow;endArrow=classic;startArrow=classic;html=1;rounded=0;fontColor=#00ff00;labelBackgroundColor=#00ff00;strokeColor=default;fillColor=#00ff00;exitX=1;exitY=0;exitDx=0;exitDy=0;" edge="1" parent="1" source="ELkXR98ZMJbfR8ZKuONg-8">
          <mxGeometry width="100" height="100" relative="1" as="geometry">
            <mxPoint x="480" y="570" as="sourcePoint" />
            <mxPoint x="480" y="470" as="targetPoint" />
            <Array as="points">
              <mxPoint x="580" y="520" />
            </Array>
          </mxGeometry>
        </mxCell>
        <mxCell id="ELkXR98ZMJbfR8ZKuONg-34" value="" style="shape=flexArrow;endArrow=classic;startArrow=classic;html=1;rounded=0;fontColor=#00ff00;labelBackgroundColor=#00ff00;strokeColor=default;fillColor=#00ff00;" edge="1" parent="1" source="ELkXR98ZMJbfR8ZKuONg-8" target="ELkXR98ZMJbfR8ZKuONg-4">
          <mxGeometry width="100" height="100" relative="1" as="geometry">
            <mxPoint x="500" y="430" as="sourcePoint" />
            <mxPoint x="500" y="330" as="targetPoint" />
            <Array as="points">
              <mxPoint x="600" y="450" />
            </Array>
          </mxGeometry>
        </mxCell>
      </root>
    </mxGraphModel>
  </diagram>
  <diagram id="_ZMXsy2ci63FXc1YAgxC" name="Page-4">
    <mxGraphModel dx="1560" dy="885" grid="1" gridSize="10" guides="1" tooltips="1" connect="1" arrows="1" fold="1" page="1" pageScale="1" pageWidth="1654" pageHeight="1169" math="0" shadow="0">
      <root>
        <mxCell id="0" />
        <mxCell id="1" parent="0" />
        <mxCell id="odbaka-CMvBU8yNs6nIJ-28" value="&lt;div align=&quot;left&quot;&gt;Exchange Address Plan&lt;br&gt;&lt;/div&gt;" style="rounded=1;whiteSpace=wrap;html=1;verticalAlign=bottom;fillColor=#ffcd28;strokeColor=#d79b00;gradientColor=#ffa500;opacity=30;arcSize=3;" vertex="1" parent="1">
          <mxGeometry x="533.53" y="188" width="406.47" height="522" as="geometry" />
        </mxCell>
        <mxCell id="odbaka-CMvBU8yNs6nIJ-1" value="AWS" style="whiteSpace=wrap;html=1;aspect=fixed;align=left;verticalAlign=top;spacingLeft=4;fillColor=none;" vertex="1" parent="1">
          <mxGeometry x="320" y="200" width="480" height="480" as="geometry" />
        </mxCell>
        <mxCell id="odbaka-CMvBU8yNs6nIJ-2" value="CLOUWAN" style="rounded=1;whiteSpace=wrap;html=1;verticalAlign=top;" vertex="1" parent="1">
          <mxGeometry x="700" y="210" width="80" height="460" as="geometry" />
        </mxCell>
        <mxCell id="odbaka-CMvBU8yNs6nIJ-3" value="Affiliate A" style="rounded=0;whiteSpace=wrap;html=1;fillColor=#dae8fc;strokeColor=#6c8ebf;" vertex="1" parent="1">
          <mxGeometry x="360" y="250" width="120" height="60" as="geometry" />
        </mxCell>
        <mxCell id="odbaka-CMvBU8yNs6nIJ-4" value="Affiliate B" style="rounded=0;whiteSpace=wrap;html=1;fillColor=#f8cecc;strokeColor=#b85450;" vertex="1" parent="1">
          <mxGeometry x="360" y="410" width="120" height="60" as="geometry" />
        </mxCell>
        <mxCell id="odbaka-CMvBU8yNs6nIJ-5" value="Affiliate C" style="rounded=0;whiteSpace=wrap;html=1;fillColor=#d5e8d4;strokeColor=#82b366;" vertex="1" parent="1">
          <mxGeometry x="360" y="580" width="120" height="60" as="geometry" />
        </mxCell>
        <mxCell id="odbaka-CMvBU8yNs6nIJ-6" value="OnPREM" style="rounded=0;whiteSpace=wrap;html=1;verticalAlign=top;align=left;fillColor=none;" vertex="1" parent="1">
          <mxGeometry x="880" y="200" width="120" height="480" as="geometry" />
        </mxCell>
        <mxCell id="odbaka-CMvBU8yNs6nIJ-7" value="" style="shape=flexArrow;endArrow=classic;startArrow=classic;html=1;rounded=0;entryX=0.002;entryY=0.166;entryDx=0;entryDy=0;entryPerimeter=0;fillColor=#dae8fc;strokeColor=#6c8ebf;" edge="1" parent="1" target="odbaka-CMvBU8yNs6nIJ-6">
          <mxGeometry width="100" height="100" relative="1" as="geometry">
            <mxPoint x="770" y="280" as="sourcePoint" />
            <mxPoint x="870" y="180" as="targetPoint" />
          </mxGeometry>
        </mxCell>
        <mxCell id="odbaka-CMvBU8yNs6nIJ-8" value="VPN" style="edgeLabel;html=1;align=center;verticalAlign=middle;resizable=0;points=[];" vertex="1" connectable="0" parent="odbaka-CMvBU8yNs6nIJ-7">
          <mxGeometry x="-0.0353" y="5" relative="1" as="geometry">
            <mxPoint x="-123" y="18" as="offset" />
          </mxGeometry>
        </mxCell>
        <mxCell id="odbaka-CMvBU8yNs6nIJ-9" value="" style="shape=flexArrow;endArrow=classic;startArrow=classic;html=1;rounded=0;entryX=0.002;entryY=0.166;entryDx=0;entryDy=0;entryPerimeter=0;fillColor=#f8cecc;strokeColor=#b85450;" edge="1" parent="1">
          <mxGeometry width="100" height="100" relative="1" as="geometry">
            <mxPoint x="770" y="425" as="sourcePoint" />
            <mxPoint x="880" y="425" as="targetPoint" />
          </mxGeometry>
        </mxCell>
        <mxCell id="odbaka-CMvBU8yNs6nIJ-10" value="VPN" style="edgeLabel;html=1;align=center;verticalAlign=middle;resizable=0;points=[];" vertex="1" connectable="0" parent="odbaka-CMvBU8yNs6nIJ-9">
          <mxGeometry x="-0.0353" y="5" relative="1" as="geometry">
            <mxPoint as="offset" />
          </mxGeometry>
        </mxCell>
        <mxCell id="odbaka-CMvBU8yNs6nIJ-11" value="" style="shape=flexArrow;endArrow=classic;startArrow=classic;html=1;rounded=0;entryX=0.002;entryY=0.166;entryDx=0;entryDy=0;entryPerimeter=0;fillColor=#d5e8d4;strokeColor=#82b366;" edge="1" parent="1">
          <mxGeometry width="100" height="100" relative="1" as="geometry">
            <mxPoint x="770" y="609.63" as="sourcePoint" />
            <mxPoint x="880" y="609.63" as="targetPoint" />
          </mxGeometry>
        </mxCell>
        <mxCell id="odbaka-CMvBU8yNs6nIJ-12" value="VPN" style="edgeLabel;html=1;align=center;verticalAlign=middle;resizable=0;points=[];" vertex="1" connectable="0" parent="odbaka-CMvBU8yNs6nIJ-11">
          <mxGeometry x="-0.0353" y="5" relative="1" as="geometry">
            <mxPoint as="offset" />
          </mxGeometry>
        </mxCell>
        <mxCell id="odbaka-CMvBU8yNs6nIJ-19" value="VPC Exch" style="rounded=0;whiteSpace=wrap;html=1;fillColor=#dae8fc;strokeColor=#6c8ebf;" vertex="1" parent="1">
          <mxGeometry x="550" y="250" width="120" height="60" as="geometry" />
        </mxCell>
        <mxCell id="odbaka-CMvBU8yNs6nIJ-20" value="VPC Exch" style="rounded=0;whiteSpace=wrap;html=1;fillColor=#f8cecc;strokeColor=#b85450;" vertex="1" parent="1">
          <mxGeometry x="550" y="410" width="120" height="60" as="geometry" />
        </mxCell>
        <mxCell id="odbaka-CMvBU8yNs6nIJ-21" value="VPC Exch" style="rounded=0;whiteSpace=wrap;html=1;fillColor=#d5e8d4;strokeColor=#82b366;" vertex="1" parent="1">
          <mxGeometry x="550" y="580" width="120" height="60" as="geometry" />
        </mxCell>
        <mxCell id="odbaka-CMvBU8yNs6nIJ-22" value="" style="sketch=0;outlineConnect=0;fontColor=#232F3E;gradientColor=none;fillColor=#8C4FFF;strokeColor=none;dashed=0;verticalLabelPosition=bottom;verticalAlign=top;align=center;html=1;fontSize=12;fontStyle=0;aspect=fixed;pointerEvents=1;shape=mxgraph.aws4.network_load_balancer;" vertex="1" parent="1">
          <mxGeometry x="642" y="240" width="28" height="28" as="geometry" />
        </mxCell>
        <mxCell id="odbaka-CMvBU8yNs6nIJ-23" value="" style="sketch=0;outlineConnect=0;fontColor=#232F3E;gradientColor=none;fillColor=#8C4FFF;strokeColor=none;dashed=0;verticalLabelPosition=bottom;verticalAlign=top;align=center;html=1;fontSize=12;fontStyle=0;aspect=fixed;pointerEvents=1;shape=mxgraph.aws4.network_load_balancer;" vertex="1" parent="1">
          <mxGeometry x="642" y="400" width="28" height="28" as="geometry" />
        </mxCell>
        <mxCell id="odbaka-CMvBU8yNs6nIJ-24" value="" style="sketch=0;outlineConnect=0;fontColor=#232F3E;gradientColor=none;fillColor=#8C4FFF;strokeColor=none;dashed=0;verticalLabelPosition=bottom;verticalAlign=top;align=center;html=1;fontSize=12;fontStyle=0;aspect=fixed;pointerEvents=1;shape=mxgraph.aws4.network_load_balancer;" vertex="1" parent="1">
          <mxGeometry x="642" y="571" width="28" height="28" as="geometry" />
        </mxCell>
        <mxCell id="odbaka-CMvBU8yNs6nIJ-25" value="" style="sketch=0;outlineConnect=0;fontColor=#232F3E;gradientColor=none;fillColor=#8C4FFF;strokeColor=none;dashed=0;verticalLabelPosition=bottom;verticalAlign=top;align=center;html=1;fontSize=12;fontStyle=0;aspect=fixed;pointerEvents=1;shape=mxgraph.aws4.nat_gateway;" vertex="1" parent="1">
          <mxGeometry x="642" y="290" width="30" height="30" as="geometry" />
        </mxCell>
        <mxCell id="odbaka-CMvBU8yNs6nIJ-26" value="" style="sketch=0;outlineConnect=0;fontColor=#232F3E;gradientColor=none;fillColor=#8C4FFF;strokeColor=none;dashed=0;verticalLabelPosition=bottom;verticalAlign=top;align=center;html=1;fontSize=12;fontStyle=0;aspect=fixed;pointerEvents=1;shape=mxgraph.aws4.nat_gateway;" vertex="1" parent="1">
          <mxGeometry x="642" y="450" width="30" height="30" as="geometry" />
        </mxCell>
        <mxCell id="odbaka-CMvBU8yNs6nIJ-27" value="" style="sketch=0;outlineConnect=0;fontColor=#232F3E;gradientColor=none;fillColor=#8C4FFF;strokeColor=none;dashed=0;verticalLabelPosition=bottom;verticalAlign=top;align=center;html=1;fontSize=12;fontStyle=0;aspect=fixed;pointerEvents=1;shape=mxgraph.aws4.nat_gateway;" vertex="1" parent="1">
          <mxGeometry x="642" y="620" width="30" height="30" as="geometry" />
        </mxCell>
        <mxCell id="odbaka-CMvBU8yNs6nIJ-31" value="&lt;div align=&quot;left&quot;&gt;AFFB Address Plan&lt;br&gt;&lt;/div&gt;" style="rounded=1;whiteSpace=wrap;html=1;verticalAlign=bottom;fillColor=#f8cecc;strokeColor=#b85450;gradientColor=#ea6b66;opacity=30;arcSize=3;" vertex="1" parent="1">
          <mxGeometry x="330" y="380" width="170" height="120" as="geometry" />
        </mxCell>
        <mxCell id="odbaka-CMvBU8yNs6nIJ-32" value="&lt;div align=&quot;left&quot;&gt;AFFB Address Plan&lt;br&gt;&lt;/div&gt;" style="rounded=1;whiteSpace=wrap;html=1;verticalAlign=bottom;fillColor=#f8cecc;strokeColor=#b85450;gradientColor=#ea6b66;opacity=30;arcSize=3;" vertex="1" parent="1">
          <mxGeometry x="960" y="380" width="200" height="120" as="geometry" />
        </mxCell>
        <mxCell id="odbaka-CMvBU8yNs6nIJ-33" value="&lt;div align=&quot;left&quot;&gt;AFFC Address Plan&lt;br&gt;&lt;/div&gt;" style="rounded=1;whiteSpace=wrap;html=1;verticalAlign=bottom;fillColor=#d5e8d4;strokeColor=#82b366;gradientColor=#97d077;opacity=30;arcSize=3;" vertex="1" parent="1">
          <mxGeometry x="960" y="540" width="200" height="120" as="geometry" />
        </mxCell>
        <mxCell id="odbaka-CMvBU8yNs6nIJ-34" value="&lt;div align=&quot;left&quot;&gt;AFFA Address Plan&lt;br&gt;&lt;/div&gt;" style="rounded=1;whiteSpace=wrap;html=1;verticalAlign=bottom;fillColor=#dae8fc;strokeColor=#6c8ebf;gradientColor=#7ea6e0;opacity=30;arcSize=3;" vertex="1" parent="1">
          <mxGeometry x="960" y="220" width="200" height="120" as="geometry" />
        </mxCell>
        <mxCell id="odbaka-CMvBU8yNs6nIJ-35" value="&lt;div align=&quot;left&quot;&gt;AFFA Address Plan&lt;br&gt;&lt;/div&gt;" style="rounded=1;whiteSpace=wrap;html=1;verticalAlign=bottom;fillColor=#dae8fc;strokeColor=#6c8ebf;gradientColor=#7ea6e0;opacity=30;arcSize=3;" vertex="1" parent="1">
          <mxGeometry x="330" y="220" width="170" height="120" as="geometry" />
        </mxCell>
        <mxCell id="odbaka-CMvBU8yNs6nIJ-36" value="&lt;div align=&quot;left&quot;&gt;AFFC Address Plan&lt;br&gt;&lt;/div&gt;" style="rounded=1;whiteSpace=wrap;html=1;verticalAlign=bottom;fillColor=#d5e8d4;strokeColor=#82b366;gradientColor=#97d077;opacity=30;arcSize=3;" vertex="1" parent="1">
          <mxGeometry x="330" y="540" width="170" height="120" as="geometry" />
        </mxCell>
        <mxCell id="odbaka-CMvBU8yNs6nIJ-37" value="TGW" style="sketch=0;points=[[0,0,0],[0.25,0,0],[0.5,0,0],[0.75,0,0],[1,0,0],[0,1,0],[0.25,1,0],[0.5,1,0],[0.75,1,0],[1,1,0],[0,0.25,0],[0,0.5,0],[0,0.75,0],[1,0.25,0],[1,0.5,0],[1,0.75,0]];outlineConnect=0;fontColor=#232F3E;fillColor=#8C4FFF;strokeColor=#ffffff;dashed=0;verticalLabelPosition=bottom;verticalAlign=top;align=center;html=1;fontSize=12;fontStyle=0;aspect=fixed;shape=mxgraph.aws4.resourceIcon;resIcon=mxgraph.aws4.transit_gateway;" vertex="1" parent="1">
          <mxGeometry x="510" y="272" width="18" height="18" as="geometry" />
        </mxCell>
        <mxCell id="odbaka-CMvBU8yNs6nIJ-46" value="TGW" style="sketch=0;points=[[0,0,0],[0.25,0,0],[0.5,0,0],[0.75,0,0],[1,0,0],[0,1,0],[0.25,1,0],[0.5,1,0],[0.75,1,0],[1,1,0],[0,0.25,0],[0,0.5,0],[0,0.75,0],[1,0.25,0],[1,0.5,0],[1,0.75,0]];outlineConnect=0;fontColor=#232F3E;fillColor=#8C4FFF;strokeColor=#ffffff;dashed=0;verticalLabelPosition=bottom;verticalAlign=top;align=center;html=1;fontSize=12;fontStyle=0;aspect=fixed;shape=mxgraph.aws4.resourceIcon;resIcon=mxgraph.aws4.transit_gateway;" vertex="1" parent="1">
          <mxGeometry x="510" y="431" width="18" height="18" as="geometry" />
        </mxCell>
        <mxCell id="odbaka-CMvBU8yNs6nIJ-47" value="TGW" style="sketch=0;points=[[0,0,0],[0.25,0,0],[0.5,0,0],[0.75,0,0],[1,0,0],[0,1,0],[0.25,1,0],[0.5,1,0],[0.75,1,0],[1,1,0],[0,0.25,0],[0,0.5,0],[0,0.75,0],[1,0.25,0],[1,0.5,0],[1,0.75,0]];outlineConnect=0;fontColor=#232F3E;fillColor=#8C4FFF;strokeColor=#ffffff;dashed=0;verticalLabelPosition=bottom;verticalAlign=top;align=center;html=1;fontSize=12;fontStyle=0;aspect=fixed;shape=mxgraph.aws4.resourceIcon;resIcon=mxgraph.aws4.transit_gateway;" vertex="1" parent="1">
          <mxGeometry x="510" y="602" width="18" height="18" as="geometry" />
        </mxCell>
        <mxCell id="odbaka-CMvBU8yNs6nIJ-48" value="" style="endArrow=none;html=1;rounded=0;entryX=0;entryY=0.5;entryDx=0;entryDy=0;entryPerimeter=0;" edge="1" parent="1" target="odbaka-CMvBU8yNs6nIJ-37">
          <mxGeometry width="50" height="50" relative="1" as="geometry">
            <mxPoint x="500" y="281" as="sourcePoint" />
            <mxPoint x="530" y="230" as="targetPoint" />
          </mxGeometry>
        </mxCell>
        <mxCell id="odbaka-CMvBU8yNs6nIJ-49" value="" style="endArrow=none;html=1;rounded=0;entryX=0.041;entryY=0.178;entryDx=0;entryDy=0;entryPerimeter=0;" edge="1" parent="1" target="odbaka-CMvBU8yNs6nIJ-28">
          <mxGeometry width="50" height="50" relative="1" as="geometry">
            <mxPoint x="528" y="280.94" as="sourcePoint" />
            <mxPoint x="538" y="280.94" as="targetPoint" />
          </mxGeometry>
        </mxCell>
        <mxCell id="odbaka-CMvBU8yNs6nIJ-50" value="" style="endArrow=none;html=1;rounded=0;entryX=0;entryY=0.5;entryDx=0;entryDy=0;entryPerimeter=0;" edge="1" parent="1">
          <mxGeometry width="50" height="50" relative="1" as="geometry">
            <mxPoint x="500" y="439.97" as="sourcePoint" />
            <mxPoint x="510" y="439.97" as="targetPoint" />
          </mxGeometry>
        </mxCell>
        <mxCell id="odbaka-CMvBU8yNs6nIJ-51" value="" style="endArrow=none;html=1;rounded=0;entryX=0.041;entryY=0.178;entryDx=0;entryDy=0;entryPerimeter=0;" edge="1" parent="1">
          <mxGeometry width="50" height="50" relative="1" as="geometry">
            <mxPoint x="528" y="439.90999999999997" as="sourcePoint" />
            <mxPoint x="550" y="439.97" as="targetPoint" />
          </mxGeometry>
        </mxCell>
        <mxCell id="odbaka-CMvBU8yNs6nIJ-52" value="" style="endArrow=none;html=1;rounded=0;entryX=0;entryY=0.5;entryDx=0;entryDy=0;entryPerimeter=0;" edge="1" parent="1">
          <mxGeometry width="50" height="50" relative="1" as="geometry">
            <mxPoint x="500" y="610.97" as="sourcePoint" />
            <mxPoint x="510" y="610.97" as="targetPoint" />
          </mxGeometry>
        </mxCell>
        <mxCell id="odbaka-CMvBU8yNs6nIJ-53" value="" style="endArrow=none;html=1;rounded=0;entryX=0.041;entryY=0.178;entryDx=0;entryDy=0;entryPerimeter=0;" edge="1" parent="1">
          <mxGeometry width="50" height="50" relative="1" as="geometry">
            <mxPoint x="528" y="610.9100000000001" as="sourcePoint" />
            <mxPoint x="550" y="610.97" as="targetPoint" />
          </mxGeometry>
        </mxCell>
      </root>
    </mxGraphModel>
  </diagram>
  <diagram id="7Rim4NXt5Hrbi-5gBPZT" name="Page-5">
    <mxGraphModel dx="1458" dy="827" grid="1" gridSize="10" guides="1" tooltips="1" connect="1" arrows="1" fold="1" page="1" pageScale="1" pageWidth="1654" pageHeight="1169" math="0" shadow="0">
      <root>
        <mxCell id="0" />
        <mxCell id="1" parent="0" />
        <mxCell id="5Z94d_Doii6zrWMvBUP9-38" value="" style="rounded=0;whiteSpace=wrap;html=1;fillColor=none;" vertex="1" parent="1">
          <mxGeometry x="300" y="150" width="920" height="300" as="geometry" />
        </mxCell>
        <mxCell id="5Z94d_Doii6zrWMvBUP9-1" value="&lt;div&gt;Exchange&lt;/div&gt;&lt;div&gt;Address Plan&lt;br&gt;&lt;/div&gt;" style="rounded=1;whiteSpace=wrap;html=1;verticalAlign=bottom;fillColor=#ffcd28;strokeColor=#d79b00;gradientColor=#ffa500;opacity=30;arcSize=3;align=center;" vertex="1" parent="1">
          <mxGeometry x="540" y="200" width="400" height="210" as="geometry" />
        </mxCell>
        <mxCell id="5Z94d_Doii6zrWMvBUP9-3" value="CLOUWAN" style="rounded=1;whiteSpace=wrap;html=1;verticalAlign=top;" vertex="1" parent="1">
          <mxGeometry x="700" y="210" width="80" height="160" as="geometry" />
        </mxCell>
        <mxCell id="5Z94d_Doii6zrWMvBUP9-4" value="Affiliate A" style="rounded=0;whiteSpace=wrap;html=1;fillColor=#dae8fc;strokeColor=#6c8ebf;" vertex="1" parent="1">
          <mxGeometry x="350" y="250" width="120" height="60" as="geometry" />
        </mxCell>
        <mxCell id="5Z94d_Doii6zrWMvBUP9-5" value="Affiliate B" style="rounded=0;whiteSpace=wrap;html=1;fillColor=#f8cecc;strokeColor=#b85450;" vertex="1" parent="1">
          <mxGeometry x="1020" y="251" width="120" height="60" as="geometry" />
        </mxCell>
        <mxCell id="5Z94d_Doii6zrWMvBUP9-14" value="VPC EXCH" style="rounded=0;whiteSpace=wrap;html=1;fillColor=#dae8fc;strokeColor=#6c8ebf;" vertex="1" parent="1">
          <mxGeometry x="550" y="250" width="120" height="60" as="geometry" />
        </mxCell>
        <mxCell id="5Z94d_Doii6zrWMvBUP9-15" value="VPC EXCH" style="rounded=0;whiteSpace=wrap;html=1;fillColor=#f8cecc;strokeColor=#b85450;" vertex="1" parent="1">
          <mxGeometry x="810" y="250" width="120" height="60" as="geometry" />
        </mxCell>
        <mxCell id="5Z94d_Doii6zrWMvBUP9-18" value="ELB" style="sketch=0;outlineConnect=0;fontColor=#232F3E;gradientColor=none;fillColor=#8C4FFF;strokeColor=none;dashed=0;verticalLabelPosition=bottom;verticalAlign=top;align=center;html=1;fontSize=12;fontStyle=0;aspect=fixed;pointerEvents=1;shape=mxgraph.aws4.network_load_balancer;" vertex="1" parent="1">
          <mxGeometry x="799" y="243" width="28" height="28" as="geometry" />
        </mxCell>
        <mxCell id="5Z94d_Doii6zrWMvBUP9-20" value="NatGW" style="sketch=0;outlineConnect=0;fontColor=#232F3E;gradientColor=none;fillColor=#8C4FFF;strokeColor=none;dashed=0;verticalLabelPosition=bottom;verticalAlign=top;align=center;html=1;fontSize=12;fontStyle=0;aspect=fixed;pointerEvents=1;shape=mxgraph.aws4.nat_gateway;" vertex="1" parent="1">
          <mxGeometry x="650" y="241" width="30" height="30" as="geometry" />
        </mxCell>
        <mxCell id="5Z94d_Doii6zrWMvBUP9-23" value="&lt;div align=&quot;left&quot;&gt;AFFB Address Plan&lt;br&gt;&lt;/div&gt;" style="rounded=1;whiteSpace=wrap;html=1;verticalAlign=bottom;fillColor=#f8cecc;strokeColor=#b85450;gradientColor=#ea6b66;opacity=30;arcSize=3;" vertex="1" parent="1">
          <mxGeometry x="990" y="221" width="170" height="169" as="geometry" />
        </mxCell>
        <mxCell id="5Z94d_Doii6zrWMvBUP9-27" value="&lt;div align=&quot;left&quot;&gt;AFFA Address Plan&lt;br&gt;&lt;/div&gt;" style="rounded=1;whiteSpace=wrap;html=1;verticalAlign=bottom;fillColor=#dae8fc;strokeColor=#6c8ebf;gradientColor=#7ea6e0;opacity=30;arcSize=3;" vertex="1" parent="1">
          <mxGeometry x="320" y="220" width="170" height="170" as="geometry" />
        </mxCell>
        <mxCell id="5Z94d_Doii6zrWMvBUP9-29" value="TGW" style="sketch=0;points=[[0,0,0],[0.25,0,0],[0.5,0,0],[0.75,0,0],[1,0,0],[0,1,0],[0.25,1,0],[0.5,1,0],[0.75,1,0],[1,1,0],[0,0.25,0],[0,0.5,0],[0,0.75,0],[1,0.25,0],[1,0.5,0],[1,0.75,0]];outlineConnect=0;fontColor=#232F3E;fillColor=#8C4FFF;strokeColor=#ffffff;dashed=0;verticalLabelPosition=bottom;verticalAlign=top;align=center;html=1;fontSize=12;fontStyle=0;aspect=fixed;shape=mxgraph.aws4.resourceIcon;resIcon=mxgraph.aws4.transit_gateway;" vertex="1" parent="1">
          <mxGeometry x="510" y="272" width="18" height="18" as="geometry" />
        </mxCell>
        <mxCell id="5Z94d_Doii6zrWMvBUP9-30" value="TGW" style="sketch=0;points=[[0,0,0],[0.25,0,0],[0.5,0,0],[0.75,0,0],[1,0,0],[0,1,0],[0.25,1,0],[0.5,1,0],[0.75,1,0],[1,1,0],[0,0.25,0],[0,0.5,0],[0,0.75,0],[1,0.25,0],[1,0.5,0],[1,0.75,0]];outlineConnect=0;fontColor=#232F3E;fillColor=#8C4FFF;strokeColor=#ffffff;dashed=0;verticalLabelPosition=bottom;verticalAlign=top;align=center;html=1;fontSize=12;fontStyle=0;aspect=fixed;shape=mxgraph.aws4.resourceIcon;resIcon=mxgraph.aws4.transit_gateway;" vertex="1" parent="1">
          <mxGeometry x="950" y="271" width="18" height="18" as="geometry" />
        </mxCell>
        <mxCell id="5Z94d_Doii6zrWMvBUP9-32" value="" style="endArrow=none;html=1;rounded=0;entryX=0;entryY=0.5;entryDx=0;entryDy=0;entryPerimeter=0;" edge="1" parent="1" target="5Z94d_Doii6zrWMvBUP9-29">
          <mxGeometry width="50" height="50" relative="1" as="geometry">
            <mxPoint x="490" y="281" as="sourcePoint" />
            <mxPoint x="500" y="281" as="targetPoint" />
          </mxGeometry>
        </mxCell>
        <mxCell id="5Z94d_Doii6zrWMvBUP9-33" value="" style="endArrow=none;html=1;rounded=0;" edge="1" parent="1" target="5Z94d_Doii6zrWMvBUP9-14">
          <mxGeometry width="50" height="50" relative="1" as="geometry">
            <mxPoint x="528" y="280.94" as="sourcePoint" />
            <mxPoint x="556" y="228" as="targetPoint" />
          </mxGeometry>
        </mxCell>
        <mxCell id="5Z94d_Doii6zrWMvBUP9-34" value="" style="endArrow=none;html=1;rounded=0;" edge="1" parent="1">
          <mxGeometry width="50" height="50" relative="1" as="geometry">
            <mxPoint x="968" y="280.78000000000003" as="sourcePoint" />
            <mxPoint x="990" y="281" as="targetPoint" />
          </mxGeometry>
        </mxCell>
        <mxCell id="5Z94d_Doii6zrWMvBUP9-35" value="" style="endArrow=none;html=1;rounded=0;entryX=0.041;entryY=0.178;entryDx=0;entryDy=0;entryPerimeter=0;" edge="1" parent="1">
          <mxGeometry width="50" height="50" relative="1" as="geometry">
            <mxPoint x="928" y="279.78" as="sourcePoint" />
            <mxPoint x="950" y="279.84000000000003" as="targetPoint" />
          </mxGeometry>
        </mxCell>
        <mxCell id="5Z94d_Doii6zrWMvBUP9-40" value="Client" style="sketch=0;points=[[0,0,0],[0.25,0,0],[0.5,0,0],[0.75,0,0],[1,0,0],[0,1,0],[0.25,1,0],[0.5,1,0],[0.75,1,0],[1,1,0],[0,0.25,0],[0,0.5,0],[0,0.75,0],[1,0.25,0],[1,0.5,0],[1,0.75,0]];outlineConnect=0;fontColor=#232F3E;fillColor=#ED7100;strokeColor=#ffffff;dashed=0;verticalLabelPosition=bottom;verticalAlign=top;align=center;html=1;fontSize=12;fontStyle=0;aspect=fixed;shape=mxgraph.aws4.resourceIcon;resIcon=mxgraph.aws4.ec2;" vertex="1" parent="1">
          <mxGeometry x="452" y="247" width="18" height="18" as="geometry" />
        </mxCell>
        <mxCell id="5Z94d_Doii6zrWMvBUP9-41" value="Server" style="sketch=0;points=[[0,0,0],[0.25,0,0],[0.5,0,0],[0.75,0,0],[1,0,0],[0,1,0],[0.25,1,0],[0.5,1,0],[0.75,1,0],[1,1,0],[0,0.25,0],[0,0.5,0],[0,0.75,0],[1,0.25,0],[1,0.5,0],[1,0.75,0]];outlineConnect=0;fontColor=#232F3E;fillColor=#ED7100;strokeColor=#ffffff;dashed=0;verticalLabelPosition=bottom;verticalAlign=top;align=center;html=1;fontSize=12;fontStyle=0;aspect=fixed;shape=mxgraph.aws4.resourceIcon;resIcon=mxgraph.aws4.ec2;" vertex="1" parent="1">
          <mxGeometry x="1020" y="247" width="18" height="18" as="geometry" />
        </mxCell>
        <mxCell id="5Z94d_Doii6zrWMvBUP9-42" value="" style="endArrow=classic;html=1;rounded=0;endFill=1;strokeColor=#0000ff;" edge="1" parent="1" source="5Z94d_Doii6zrWMvBUP9-40" target="5Z94d_Doii6zrWMvBUP9-20">
          <mxGeometry width="50" height="50" relative="1" as="geometry">
            <mxPoint x="468" y="300" as="sourcePoint" />
            <mxPoint x="518" y="250" as="targetPoint" />
          </mxGeometry>
        </mxCell>
        <mxCell id="5Z94d_Doii6zrWMvBUP9-43" value="" style="endArrow=classic;html=1;rounded=0;endFill=1;strokeColor=#ff8000;exitX=1.002;exitY=0.339;exitDx=0;exitDy=0;exitPerimeter=0;" edge="1" parent="1" source="5Z94d_Doii6zrWMvBUP9-45">
          <mxGeometry width="50" height="50" relative="1" as="geometry">
            <mxPoint x="670" y="256.78" as="sourcePoint" />
            <mxPoint x="800" y="257" as="targetPoint" />
          </mxGeometry>
        </mxCell>
        <mxCell id="5Z94d_Doii6zrWMvBUP9-44" value="" style="endArrow=classic;html=1;rounded=0;endFill=1;strokeColor=#ff0000;" edge="1" parent="1" target="5Z94d_Doii6zrWMvBUP9-41">
          <mxGeometry width="50" height="50" relative="1" as="geometry">
            <mxPoint x="827" y="256.78" as="sourcePoint" />
            <mxPoint x="997" y="256.78" as="targetPoint" />
          </mxGeometry>
        </mxCell>
        <mxCell id="5Z94d_Doii6zrWMvBUP9-45" value="Affiliate A Account" style="points=[[0,0],[0.25,0],[0.5,0],[0.75,0],[1,0],[1,0.25],[1,0.5],[1,0.75],[1,1],[0.75,1],[0.5,1],[0.25,1],[0,1],[0,0.75],[0,0.5],[0,0.25]];outlineConnect=0;gradientColor=none;html=1;whiteSpace=wrap;fontSize=12;fontStyle=0;container=1;pointerEvents=0;collapsible=0;recursiveResize=0;shape=mxgraph.aws4.group;grIcon=mxgraph.aws4.group_account;strokeColor=#CD2264;fillColor=none;verticalAlign=top;align=left;spacingLeft=30;fontColor=#CD2264;dashed=0;" vertex="1" parent="1">
          <mxGeometry x="310" y="170" width="370" height="260" as="geometry" />
        </mxCell>
        <mxCell id="5Z94d_Doii6zrWMvBUP9-46" value="Affiliate B Account" style="points=[[0,0],[0.25,0],[0.5,0],[0.75,0],[1,0],[1,0.25],[1,0.5],[1,0.75],[1,1],[0.75,1],[0.5,1],[0.25,1],[0,1],[0,0.75],[0,0.5],[0,0.25]];outlineConnect=0;gradientColor=none;html=1;whiteSpace=wrap;fontSize=12;fontStyle=0;container=1;pointerEvents=0;collapsible=0;recursiveResize=0;shape=mxgraph.aws4.group;grIcon=mxgraph.aws4.group_account;strokeColor=#CD2264;fillColor=none;verticalAlign=top;align=left;spacingLeft=30;fontColor=#CD2264;dashed=0;" vertex="1" parent="1">
          <mxGeometry x="799" y="170" width="370" height="260" as="geometry" />
        </mxCell>
        <mxCell id="5Z94d_Doii6zrWMvBUP9-47" value="Exch Acc" style="points=[[0,0],[0.25,0],[0.5,0],[0.75,0],[1,0],[1,0.25],[1,0.5],[1,0.75],[1,1],[0.75,1],[0.5,1],[0.25,1],[0,1],[0,0.75],[0,0.5],[0,0.25]];outlineConnect=0;gradientColor=none;html=1;whiteSpace=wrap;fontSize=12;fontStyle=0;container=1;pointerEvents=0;collapsible=0;recursiveResize=0;shape=mxgraph.aws4.group;grIcon=mxgraph.aws4.group_account;strokeColor=#CD2264;fillColor=none;verticalAlign=top;align=left;spacingLeft=30;fontColor=#CD2264;dashed=0;" vertex="1" parent="5Z94d_Doii6zrWMvBUP9-46">
          <mxGeometry x="-109" y="-1" width="99" height="261" as="geometry" />
        </mxCell>
      </root>
    </mxGraphModel>
  </diagram>
</mxfile>
